<svg xmlns="http://www.w3.org/2000/svg" viewBox="0 0 32 32" fill="none"><rect width="32" height="32" rx="6" fill="#e67e22"/><path d="M8 11.333A2.667 2.667 0 0110.667 8h10.666A2.667 2.667 0 0124 10.667v10.666A2.667 2.667 0 0121.333 24H10.667A2.667 2.667 0 018 21.333V11.333zm2.667-.667a.667.667 0 00-.667.667v.28l6 4.36 6-4.36v-.28a.667.667 0 00-.667-.667H10.667zm11.333 2.16l-5.56 4.047a.667.667 0 01-.813 0L10 12.826v8.507c0 .367.3.667.667.667h10.666a.667.667 0 00.667-.667v-8.507z" fill="#fff"/></svg>