<svg xmlns="http://www.w3.org/2000/svg" viewBox="0 0 32 32" fill="none"><rect width="32" height="32" rx="6" fill="#222"/><path d="M16 7.333c-4.6 0-8.333 3.733-8.333 8.333 0 3.683 2.393 6.8 5.707 7.907.417.08.573-.18.573-.4v-1.387c-2.32.507-2.807-1.12-2.807-1.12-.38-.96-.927-1.213-.927-1.213-.76-.52.06-.507.06-.507.84.06 1.28.867 1.28.867.747 1.28 1.96.913 2.44.7.073-.54.293-.913.533-1.123-1.853-.213-3.8-.927-3.8-4.127 0-.913.327-1.66.86-2.247-.087-.213-.373-1.073.08-2.233 0 0 .7-.227 2.293.86a7.98 7.98 0 012.087-.28c.707.003 1.42.096 2.087.28 1.593-1.087 2.293-.86 2.293-.86.453 1.16.167 2.02.08 2.233.533.587.86 1.334.86 2.247 0 3.207-1.947 3.91-3.8 4.12.3.26.567.773.567 1.56v2.307c0 .22.157.48.573.4A8.34 8.34 0 0024.333 15.67c0-4.6-3.733-8.333-8.333-8.333z" fill="#fff"/></svg>